<?xml version="1.0" encoding="UTF-8"?>
<svg id="Layer_2" data-name="Layer 2" xmlns="http://www.w3.org/2000/svg" xmlns:xlink="http://www.w3.org/1999/xlink" viewBox="0 0 237.79 49.67">
  <defs>
    <style>
      .cls-1 {
        fill: url(#linear-gradient-2);
      }

      .cls-2 {
        fill: #19355a;
      }

      .cls-3 {
        fill: #2783bb;
      }

      .cls-4 {
        fill: url(#linear-gradient-4);
      }

      .cls-5 {
        fill: url(#linear-gradient-3);
      }

      .cls-6 {
        fill: url(#linear-gradient);
      }
    </style>
    <linearGradient id="linear-gradient" x1="30.21" y1="37.13" x2="40.49" y2="53.18" gradientUnits="userSpaceOnUse">
      <stop offset="0" stop-color="#594c9f"/>
      <stop offset=".68" stop-color="#6155a3"/>
      <stop offset=".97" stop-color="#665ba7"/>
    </linearGradient>
    <linearGradient id="linear-gradient-2" x1="22.7" y1="37.57" x2="2.99" y2="19.78" gradientUnits="userSpaceOnUse">
      <stop offset="0" stop-color="#7e5ea8"/>
      <stop offset="1" stop-color="#665ba7"/>
    </linearGradient>
    <linearGradient id="linear-gradient-3" x1="9.68" y1="17.69" x2="42.11" y2="17.69" gradientUnits="userSpaceOnUse">
      <stop offset="0" stop-color="#5fc7cd"/>
      <stop offset=".63" stop-color="#519fcc"/>
      <stop offset="1" stop-color="#4b8ecc"/>
      <stop offset="1" stop-color="#4b8ecc"/>
    </linearGradient>
    <linearGradient id="linear-gradient-4" x1="32.23" y1="30.22" x2="38.44" y2="8.66" gradientUnits="userSpaceOnUse">
      <stop offset="0" stop-color="#f5a11d"/>
      <stop offset="1" stop-color="#f0d21f"/>
      <stop offset="1" stop-color="#f0d21f"/>
    </linearGradient>
  </defs>
  <g id="Layer_1-2" data-name="Layer 1">
    <g>
      <g>
        <path class="cls-6" d="M35.88,37.87c-1.71,1.08-3.74,1.71-5.92,1.71-1.71,0-3.33-.39-4.77-1.08h-.06s5.88,8.37,5.88,8.37c0,0,4.51,3.12,13.19,2.78-2.36-2.02-7.98-11.23-8.32-11.78Z"/>
        <g>
          <path class="cls-1" d="M21.14,32.27c-.18,0-.37.01-.55.01-6.71,0-12.15-5.44-12.15-12.16,0-1.79.39-3.49,1.08-5.02l-5.8-6.4C1.38,11.96,0,15.89,0,20.14c0,11.12,9.43,20.14,21.06,20.14,1.71,0,3.37-.2,4.96-.57l-4.88-7.43Z"/>
          <path class="cls-3" d="M6.65,18.74c.7-1.46,1.56-2.78,2.56-3.98l-5.49-6.05C1.38,11.96,0,15.89,0,20.14c0,5.49,2.3,10.46,6.02,14.09-1.85-4.93-1.78-10.48.63-15.49Z"/>
        </g>
        <g>
          <path class="cls-5" d="M15.03,9.32c1.67-.86,3.56-1.35,5.56-1.35,6.71,0,12.15,5.44,12.15,12.16,0,3.27-1.3,6.24-3.4,8.43l5.46,6.83c4.48-3.69,7.31-9.15,7.31-15.25C42.11,9.01,32.68,0,21.06,0c-4.19,0-8.1,1.18-11.38,3.2l5.35,6.12Z"/>
          <path class="cls-3" d="M12.79,2.76c-.96,0-1.9.09-2.8.25-.1.06-.21.12-.31.18l5.35,6.12c1.67-.86,3.56-1.35,5.56-1.35,1.46,0,2.85.26,4.15.73-2.43-3.55-6.87-5.94-11.95-5.94Z"/>
          <path class="cls-4" d="M32.28,3.1c3.31,5.13,4.3,11.55,2.12,17.56-.86,2.38-2.15,4.48-3.75,6.27-.39.58-.83,1.12-1.31,1.62l5.46,6.83c4.48-3.69,7.31-9.15,7.31-15.25,0-7.17-3.93-13.47-9.83-17.03Z"/>
        </g>
      </g>
      <g>
        <path class="cls-2" d="M237.35,37.56c-.38,0-.75,0-1.13,0-2.44,0-4.87,0-7.31.03-.68,0-1.12-.23-1.53-.78-2.22-3.01-4.48-6-6.73-8.99-.24-.33-.49-.65-.8-1.05-.45.57-.86,1.08-1.26,1.59-1.89,2.42-3.78,4.85-5.68,7.27-.44.56-.94,1.09-1.37,1.66-.25.33-.57.29-.9.29-1.97,0-3.95,0-5.92,0-.99,0-1.99,0-3.16,0,4.31-5.82,8.96-11.16,13.23-16.91-2.02-2.84-4.17-5.6-6.31-8.37-2.13-2.74-4.27-5.47-6.46-8.38.49-.03.79-.05,1.09-.06,2.54,0,5.08,0,7.62-.02.52,0,.84.16,1.15.57,2.52,3.33,5.07,6.65,7.61,9.97.11.14.23.26.42.47.33-.34.65-.62.91-.95,1.58-2.05,3.15-4.11,4.72-6.17.86-1.12,1.71-2.24,2.56-3.36.2-.27.39-.51.8-.51,2.92.01,5.84,0,8.89,0-.15.26-.25.45-.38.62-1.69,2.19-3.39,4.38-5.09,6.56-2.1,2.69-4.21,5.36-6.3,8.06-.42.54-.76,1.15-1.19,1.8,4.2,5.49,8.4,10.98,12.6,16.47-.03.07-.06.14-.08.21ZM220.09,15.06l-.12.05v11.35s.08.03.13.05c1.46-1.89,2.93-3.78,4.41-5.71-1.49-1.94-2.96-3.84-4.42-5.74Z"/>
        <path class="cls-2" d="M46.26,3.96h7.39c.02.41.05.79.05,1.16.01,4.8.01,9.59.03,14.39,0,1.21.04,2.41.03,3.62-.02,2.3,1.03,4.1,2.67,5.58,3.22,2.88,7.72,2.2,10.39.28,1.98-1.42,2.88-3.36,2.95-5.72.06-2.1.03-4.21.03-6.31,0-4.08-.01-8.16-.02-12.23,0-.25,0-.51,0-.82h7.4c.02.22.07.44.07.66.02,5.8.05,11.59.05,17.39,0,1.95-.15,3.89-.69,5.78-1.14,4.03-3.67,6.86-7.39,8.67-2.42,1.18-4.99,1.73-7.66,1.72-2.65,0-5.16-.68-7.52-1.94-2.16-1.15-3.87-2.79-5.25-4.76-1.24-1.77-1.9-3.8-2.19-5.93-.17-1.27-.29-2.55-.3-3.83-.04-5.75-.03-11.49-.04-17.24,0-.13,0-.25,0-.46Z"/>
        <path class="cls-2" d="M156.43,11.2h-8.28c-.18-.62-.23-6.22-.08-7.3h25.75c.06,2.41.01,4.81.02,7.29h-9.62v26.3h-7.8V11.2Z"/>
        <g>
          <path class="cls-2" d="M76.75,37.46c6.38-11.33,12.68-22.54,18.99-33.74.44.33,3.65,5.67,4.38,7.29-.28.52-.57,1.06-.87,1.59-4.47,8.1-8.94,16.21-13.4,24.32-.22.4-.46.54-.9.53-1.05-.03-2.1-.02-3.16,0-1.08.01-2.15.06-3.23.07-.58,0-1.16-.03-1.81-.05Z"/>
          <path class="cls-2" d="M96.88,20.62c2.87,0,5.59.01,8.3-.01.46,0,.62.26.8.58,1.44,2.48,2.88,4.96,4.31,7.45,1.44,2.51,2.87,5.03,4.31,7.54.22.39.41.8.66,1.28-.26.03-.4.06-.55.06-2.54,0-5.08-.03-7.61-.01-.57,0-.86-.2-1.13-.69-2.88-5.14-5.78-10.27-8.67-15.4-.12-.22-.23-.44-.42-.8Z"/>
        </g>
        <g>
          <path class="cls-2" d="M200.81,30c.06,2.34.12,4.64.17,6.93,0,.19-.1.39-.16.6h-26.98c.28-.39.44-.64.63-.87,1.64-2.07,3.29-4.12,4.93-6.19.27-.34.57-.53,1.04-.53,6.72.01,13.43,0,20.15.01.05,0,.1.02.23.04Z"/>
          <path class="cls-2" d="M174.68,11.14c.22-.31.34-.52.49-.71,1.65-2.06,3.31-4.11,4.94-6.19.28-.36.6-.4,1-.4,5.85,0,11.69,0,17.54,0,.66,0,1.33,0,1.97,0,.21.66.25,6.23.06,7.29h-26.01Z"/>
          <path class="cls-2" d="M192.68,24.27h-18.74c.14-.22.22-.36.33-.49,1.7-2.12,3.4-4.24,5.1-6.37.25-.31.48-.53.94-.53,3.98.03,7.95.02,11.93.03.1,0,.2.02.4.04.08,2.42.02,4.84.04,7.32Z"/>
        </g>
        <g>
          <path class="cls-2" d="M138.69,3.89c0,.34,0,.64,0,.94,0,5.84,0,11.69-.03,17.53,0,.61.18,1.06.61,1.49,1.94,1.94,3.85,3.9,5.78,5.85.28.28.58.53.97.9V3.89h-7.33Z"/>
          <path class="cls-2" d="M128.76,13.6c-.45-.45-.94-.86-1.48-1.34-.01.13-.03.25-.03.36,0,3.26,0,6.51-.01,9.77,0,.41.18.65.45.92,2.41,2.41,4.81,4.83,7.2,7.26,2.09,2.12,4.16,4.24,6.25,6.36.13.14.29.25.56.48,0-.34,0-.53,0-.72,0-3.05,0-6.1.02-9.15,0-.62-.19-1.04-.62-1.47-4.12-4.14-8.22-8.3-12.34-12.45Z"/>
          <path class="cls-2" d="M119.41,3.73h-1.66c-.54,0-1.05-.01-1.64,0-.03,11.24-.02,22.54.01,33.74h7.54c0-.31,0-.59,0-.86,0-1.85,0-3.69,0-5.54,0-7.39.01-14.77.03-22.16,0-.25-.03-.46-.12-.66l.12-.03-4.28-4.49Z"/>
        </g>
      </g>
    </g>
  </g>
</svg>