<?xml version="1.0" encoding="UTF-8"?>
<svg id="Layer_2" data-name="Layer 2" xmlns="http://www.w3.org/2000/svg" xmlns:xlink="http://www.w3.org/1999/xlink" viewBox="0 0 63.36 60.6">
  <defs>
    <style>
      .cls-1 {
        fill: url(#linear-gradient-2);
      }

      .cls-2 {
        fill: url(#linear-gradient-3);
      }

      .cls-3 {
        fill: #2582ba;
      }

      .cls-4 {
        fill: url(#linear-gradient);
      }
    </style>
    <linearGradient id="linear-gradient" x1="34.15" y1="56.53" x2="4.5" y2="29.77" gradientUnits="userSpaceOnUse">
      <stop offset="0" stop-color="#9654ed"/>
      <stop offset="1" stop-color="#6c4de0"/>
    </linearGradient>
    <linearGradient id="linear-gradient-2" x1="14.56" y1="26.62" x2="63.36" y2="26.62" gradientUnits="userSpaceOnUse">
      <stop offset="0" stop-color="#16e8e1"/>
      <stop offset=".25" stop-color="#23cede"/>
      <stop offset=".75" stop-color="#3aa0da"/>
      <stop offset="1" stop-color="#448fd9"/>
      <stop offset="1" stop-color="#448fd9"/>
    </linearGradient>
    <linearGradient id="linear-gradient-3" x1="48.49" y1="45.47" x2="57.85" y2="13.03" gradientUnits="userSpaceOnUse">
      <stop offset="0" stop-color="#f6a105"/>
      <stop offset="1" stop-color="#f0d21d"/>
      <stop offset="1" stop-color="#f0d21d"/>
    </linearGradient>
  </defs>
  <g id="Layer_1-2" data-name="Layer 1">
    <g>
      <g>
        <path class="cls-4" d="M31.81,48.56c-.28.01-.55.02-.83.02-10.1,0-18.28-8.19-18.28-18.3,0-2.69.59-5.25,1.63-7.55L5.6,13.1C2.07,17.99,0,23.91,0,30.3c0,16.73,14.18,30.3,31.68,30.3,2.57,0,5.07-.3,7.47-.85l-7.34-11.18Z"/>
        <path class="cls-3" d="M10.01,28.2c1.06-2.19,2.35-4.19,3.85-5.98L5.6,13.1C2.07,17.99,0,23.91,0,30.3c0,8.26,3.46,15.74,9.06,21.2-2.78-7.42-2.68-15.78.95-23.31Z"/>
      </g>
      <g>
        <path class="cls-1" d="M22.61,14.02c2.51-1.29,5.35-2.03,8.37-2.03,10.1,0,18.28,8.19,18.28,18.3,0,4.93-1.95,9.4-5.12,12.69l8.22,10.27c6.73-5.56,11-13.77,11-22.94C63.36,13.56,49.18,0,31.68,0c-6.31,0-12.18,1.77-17.12,4.81l8.05,9.21Z"/>
        <path class="cls-3" d="M19.25,4.15c-1.45,0-2.86.14-4.22.38-.16.09-.31.18-.47.28l8.05,9.21c2.51-1.29,5.35-2.03,8.37-2.03,2.19,0,4.3.39,6.24,1.1-3.65-5.35-10.33-8.93-17.98-8.93Z"/>
        <path class="cls-2" d="M48.57,4.67c4.99,7.72,6.48,17.38,3.19,26.43-1.3,3.57-3.24,6.74-5.64,9.43-.59.87-1.25,1.69-1.97,2.44l8.22,10.27c6.73-5.56,11-13.77,11-22.94,0-10.79-5.91-20.26-14.79-25.63Z"/>
      </g>
    </g>
  </g>
</svg>