<?xml version="1.0" encoding="UTF-8"?>
<svg id="Layer_2" data-name="Layer 2" xmlns="http://www.w3.org/2000/svg" xmlns:xlink="http://www.w3.org/1999/xlink" viewBox="0 0 66.04 74.23">
  <defs>
    <style>
      .cls-1 {
        fill: url(#linear-gradient-2);
      }

      .cls-2 {
        fill: #2783bb;
      }

      .cls-3 {
        fill: url(#linear-gradient-4);
      }

      .cls-4 {
        fill: url(#linear-gradient-3);
      }

      .cls-5 {
        fill: url(#linear-gradient);
      }
    </style>
    <linearGradient id="linear-gradient" x1="45.14" y1="55.48" x2="60.51" y2="79.48" gradientUnits="userSpaceOnUse">
      <stop offset="0" stop-color="#594c9f"/>
      <stop offset=".68" stop-color="#6155a3"/>
      <stop offset=".97" stop-color="#665ba7"/>
    </linearGradient>
    <linearGradient id="linear-gradient-2" x1="33.91" y1="56.14" x2="4.47" y2="29.56" gradientUnits="userSpaceOnUse">
      <stop offset="0" stop-color="#7e5ea8"/>
      <stop offset="1" stop-color="#665ba7"/>
    </linearGradient>
    <linearGradient id="linear-gradient-3" x1="14.46" y1="26.44" x2="62.93" y2="26.44" gradientUnits="userSpaceOnUse">
      <stop offset="0" stop-color="#5fc7cd"/>
      <stop offset=".63" stop-color="#519fcc"/>
      <stop offset="1" stop-color="#4b8ecc"/>
      <stop offset="1" stop-color="#4b8ecc"/>
    </linearGradient>
    <linearGradient id="linear-gradient-4" x1="48.16" y1="45.15" x2="57.45" y2="12.94" gradientUnits="userSpaceOnUse">
      <stop offset="0" stop-color="#f5a11d"/>
      <stop offset="1" stop-color="#f0d21f"/>
      <stop offset="1" stop-color="#f0d21f"/>
    </linearGradient>
  </defs>
  <g id="Layer_1-2" data-name="Layer 1">
    <path class="cls-5" d="M66.04,74.19c-3.52-3.02-11.93-16.78-12.43-17.6-2.56,1.62-5.59,2.55-8.84,2.55-2.55,0-4.97-.58-7.13-1.61h-.1s8.78,12.5,8.78,12.5c0,0,6.74,4.67,19.71,4.15"/>
    <g>
      <path class="cls-1" d="M31.59,48.23c-.28.01-.55.02-.83.02-10.03,0-18.16-8.13-18.16-18.17,0-2.68.58-5.21,1.62-7.5L5.56,13.01C2.06,17.87,0,23.75,0,30.09c0,16.62,14.09,30.09,31.46,30.09,2.56,0,5.04-.3,7.42-.85l-7.29-11.1Z"/>
      <path class="cls-2" d="M9.94,28c1.05-2.18,2.34-4.16,3.82-5.94L5.56,13.01C2.06,17.87,0,23.75,0,30.09c0,8.2,3.43,15.63,9,21.06-2.76-7.37-2.66-15.67.94-23.14Z"/>
    </g>
    <path class="cls-4" d="M62.93,30.09C62.93,13.47,48.84,0,31.46,0c-6.27,0-12.1,1.76-17,4.78l8,9.14c2.49-1.29,5.31-2.02,8.31-2.02,10.03,0,18.16,8.13,18.16,18.17,0,4.89-1.94,9.33-5.08,12.6l8.16,10.2c6.69-5.52,10.93-13.68,10.93-22.79"/>
    <path class="cls-2" d="M19.11,4.12c-1.44,0-2.84.14-4.19.38-.15.09-.31.18-.46.28l8,9.14c2.49-1.29,5.31-2.02,8.31-2.02,2.18,0,4.27.38,6.2,1.09-3.63-5.31-10.26-8.87-17.85-8.87Z"/>
    <path class="cls-3" d="M62.93,30.09c0-10.72-5.87-20.12-14.69-25.45,4.95,7.66,6.43,17.26,3.17,26.25-1.29,3.55-3.22,6.69-5.6,9.36-.59.86-1.24,1.68-1.96,2.43l8.16,10.2c6.69-5.52,10.93-13.68,10.93-22.79"/>
  </g>
</svg>